<svg xmlns="http://www.w3.org/2000/svg" fill="none" viewBox="-0.605 -0.605 17 17" height="17" width="17"><g id="calendar-star--calendar-date-day-favorite-like-month-star"><path id="Vector" stroke="#ffffff" stroke-linecap="round" stroke-linejoin="round" d="M1.691785714285714 2.2557142857142853c-0.2991302714285714 0 -0.5860007357142856 0.11883102857142855 -0.7975156807142856 0.3303380785714285C0.6827562164285713 2.7975706928571427 0.5639285714285713 3.084441157142857 0.5639285714285713 3.383571428571428v10.714642857142856c0 0.2991077142857142 0.11882764499999998 0.5860345714285713 0.3303414621428571 0.7975077857142855 0.21151494499999998 0.21147321428571425 0.4983854092857142 0.33034935714285707 0.7975156807142856 0.33034935714285707h12.40642857142857c0.2991077142857142 0 0.5860345714285713 -0.11887614285714283 0.7975077857142855 -0.33034935714285707s0.33034935714285707 -0.49840007142857135 0.33034935714285707 -0.7975077857142855V3.383571428571428c0 -0.2991302714285714 -0.11887614285714283 -0.5860007357142856 -0.33034935714285707 -0.7975190642857142C14.684248857142855 2.374545314285714 14.397321999999997 2.2557142857142853 14.098214285714283 2.2557142857142853h-2.2557142857142853" stroke-width="1.21"></path><path id="Vector_2" stroke="#ffffff" stroke-linecap="round" stroke-linejoin="round" d="M3.9474999999999993 0.5639285714285713v3.383571428571428" stroke-width="1.21"></path><path id="Vector_3" stroke="#ffffff" stroke-linecap="round" stroke-linejoin="round" d="M11.842499999999998 0.5639285714285713v3.383571428571428" stroke-width="1.21"></path><path id="Vector_4" stroke="#ffffff" stroke-linecap="round" stroke-linejoin="round" d="M3.9474999999999993 2.2557142857142853h5.639285714285713" stroke-width="1.21"></path><path id="Vector_5" stroke="#ffffff" stroke-linecap="round" stroke-linejoin="round" d="m8.175520628571427 5.247253849999999 0.9435765642857141 1.8981384571428568c0.02110220714285714 0.04800159999999999 0.054565728571428565 0.08955185714285713 0.09697315714285713 0.12038747142857141 0.04240742857142857 0.03084689285714285 0.0922474357142857 0.04988512142857142 0.14441082857142853 0.05516349285714285l2.095614964285714 0.31817977857142854c0.059889214285714275 0.007793492857142857 0.11639485714285712 0.03249356428571428 0.1627497857142857 0.07119034285714285 0.04646771428571428 0.03870805714285714 0.08086735714285713 0.08981126428571427 0.09925142857142855 0.14735453571428567 0.018384071428571423 0.05754327142857142 0.02007585714285714 0.11914682857142855 0.004736999999999999 0.17759238571428568 -0.015226071428571426 0.05844555714285713 -0.04691885714285713 0.11133077857142856 -0.09113085714285712 0.15245245L10.084633135714283 9.6579535c-0.023075957142857137 0.04399770714285714 -0.03512147142857142 0.09294670714285712 -0.03512147142857142 0.14262881428571425 0 0.04969338571428571 0.012045514285714284 0.09863110714285712 0.03512147142857142 0.14264009285714283l0.2962316785714285 2.0846973071428567c0.012643278571428569 0.06022757142857142 0.007534085714285713 0.12282364285714284 -0.014718535714285714 0.1802315714285714 -0.022241342857142854 0.05740792857142856 -0.0606674357142857 0.10714642857142856 -0.11060894999999998 0.14312507142857142 -0.04994151428571428 0.03597864285714285 -0.10925552142857141 0.056731214285714274 -0.1707575714285714 0.05977642857142856 -0.061490771428571414 0.0029324285714285706 -0.12253039999999998 -0.012068071428571426 -0.17569758571428568 -0.04308414285714285l-1.8652275857142855 -0.9874389285714283c-0.048272285714285705 -0.021767642857142853 -0.10062741428571426 -0.03304621428571428 -0.15360286428571426 -0.03304621428571428 -0.052975449999999986 0 -0.10533057857142855 0.011278571428571428 -0.15360286428571426 0.03304621428571428l-1.8652275857142855 0.9874389285714283c-0.053167185714285706 0.031016071428571424 -0.11420681428571428 0.04601657142857143 -0.17569758571428568 0.04308414285714285 -0.06150204999999999 -0.003045214285714285 -0.12081605714285713 -0.023797785714285712 -0.1707575714285714 -0.05977642857142856s-0.08836760714285713 -0.08571714285714284 -0.11060894999999998 -0.14312507142857142c-0.022252621428571425 -0.05740792857142856 -0.02736181428571428 -0.12000399999999997 -0.014718535714285714 -0.1802315714285714l0.35109064999999995 -2.0846973071428567c0.015102007142857142 -0.04838507142857142 0.017989321428571424 -0.09975896428571426 0.008425092857142855 -0.14953129999999998 -0.00957550714285714 -0.04977233571428571 -0.03130931428571428 -0.09640922857142856 -0.06328406428571427 -0.13573760714285713L4.148833778571428 8.176749992857141c-0.04103144285714285 -0.04157281428571428 -0.06983691428571427 -0.09363469999999999 -0.0832471357142857 -0.1504787 -0.013410221428571427 -0.056855278571428566 -0.010906378571428569 -0.11629334999999998 0.0072182857142857135 -0.1718290357142857 0.018135942857142855 -0.055524407142857134 0.0511934357142857 -0.10498094285714284 0.09557461428571426 -0.1429671714285714 0.044381178571428564 -0.03797494999999999 0.09834914285714284 -0.06301337857142857 0.15600519999999998 -0.0723520357142857l2.0956375214285714 -0.3072170071428571c0.052163392857142846 -0.005278371428571428 0.1020034 -0.024305321428571423 0.14441082857142853 -0.05515221428571428 0.04240742857142857 -0.03083561428571428 0.07587094999999998 -0.07238587142857142 0.09696187857142856 -0.12039874999999997l0.9435878428571427 -1.8981271785714282c0.025252721428571424 -0.05373111428571428 0.06502096428571427 -0.09933037857142855 0.11483841428571426 -0.1316434857142857 0.04980617142857142 -0.03230182857142856 0.10766524285714284 -0.05003174285714285 0.16702436428571427 -0.05117087857142856 0.05935912142857142 -0.0011391357142857142 0.11784979285714284 0.014346342857142855 0.1688627714285714 0.044719535714285705 0.051012978571428565 0.03036191428571428 0.09251812142857142 0.07439345714285714 0.11981226428571427 0.12712077857142856Z" stroke-width="1.21"></path></g></svg>