<svg xmlns="http://www.w3.org/2000/svg" viewBox="0 0 500 500"><g id="freepik--background-complete--inject-23"><rect x="46.99" y="40.91" width="136.06" height="207.55" transform="translate(230.03 289.38) rotate(180)" style="fill:#ebebeb"></rect><rect x="125.54" y="49.23" width="57.51" height="92.32" transform="translate(308.58 190.77) rotate(180)" style="fill:#fff"></rect><rect x="61.74" y="49.23" width="57.51" height="92.32" transform="translate(180.99 190.77) rotate(180)" style="fill:#fff"></rect><rect x="125.54" y="147.83" width="57.51" height="92.32" transform="translate(308.58 387.98) rotate(180)" style="fill:#fff"></rect><rect x="61.74" y="147.83" width="57.51" height="92.32" transform="translate(180.99 387.98) rotate(180)" style="fill:#fff"></rect><polygon points="99.47 40.91 46.98 40.91 46.98 337.85 77.36 337.85 56.16 186.75 99.47 40.91" style="fill:#dbdbdb"></polygon><polygon points="90.38 48.94 82.06 83.45 73.59 117.93 56.64 186.87 56.65 186.7 64.49 258.75 68.41 294.78 72.16 330.82 67.92 294.83 63.83 258.82 55.66 186.81 55.66 186.72 55.68 186.63 72.95 117.77 81.59 83.34 90.38 48.94" style="fill:#ebebeb"></polygon><polygon points="50.11 55.03 50.35 84.81 50.49 114.59 50.61 174.15 50.49 233.7 50.35 263.48 50.11 293.26 49.86 263.48 49.72 233.7 49.61 174.15 49.73 114.59 49.87 84.81 50.11 55.03" style="fill:#ebebeb"></polygon><path d="M59.92,60.61,58.29,92.26l-1.77,31.65L53,187.19v0c.35,11.76.58,23.51.87,35.26l.83,35.26.83,35.26.67,35.27L55,293l-1-35.26-1-35.25c-.32-11.76-.71-23.51-1-35.26v0l3.88-63.27,1.95-31.63Z" style="fill:#ebebeb"></path><path d="M66.75,323.63l-3.44-34.16L60,255.29c-2.13-22.79-4.35-45.57-6.4-68.37v-.13l9.73-53.21L68.26,107l5-26.58-4.59,26.66L64,133.71,54.53,187v-.13c2.18,22.79,4.19,45.59,6.29,68.39l3,34.2Z" style="fill:#ebebeb"></path><rect x="46.99" y="184.26" width="11.85" height="6.92" transform="translate(105.82 375.45) rotate(180)" style="fill:#dbdbdb"></rect><polygon points="130.56 40.91 183.05 40.91 183.05 337.85 152.67 337.85 173.87 186.75 130.56 40.91" style="fill:#dbdbdb"></polygon><polygon points="139.65 48.94 148.44 83.34 157.08 117.77 174.35 186.63 174.38 186.72 174.37 186.81 166.2 258.82 162.11 294.83 157.87 330.82 161.62 294.78 165.54 258.75 173.38 186.7 173.39 186.87 156.44 117.93 147.97 83.45 139.65 48.94" style="fill:#ebebeb"></polygon><polygon points="179.92 55.03 180.17 84.81 180.31 114.59 180.42 174.15 180.31 233.7 180.17 263.48 179.92 293.26 179.68 263.48 179.54 233.7 179.42 174.15 179.54 114.59 179.68 84.81 179.92 55.03" style="fill:#ebebeb"></polygon><path d="M170.12,60.61l2.08,31.63,2,31.63L178,187.14v0c-.26,11.75-.65,23.5-1,35.26l-1,35.25L175,293l-1.17,35.25.67-35.27.83-35.26.83-35.26c.3-11.75.52-23.5.87-35.26v0l-3.56-63.28-1.77-31.65Z" style="fill:#ebebeb"></path><path d="M163.28,323.63l2.91-34.21,3-34.2c2.1-22.8,4.11-45.6,6.29-68.39V187L166,133.71l-4.67-26.64-4.6-26.66,5,26.58,4.94,26.59,9.73,53.21v.13c-2.06,22.8-4.27,45.58-6.4,68.37l-3.33,34.18Z" style="fill:#ebebeb"></path><rect x="171.19" y="184.26" width="11.85" height="6.92" style="fill:#dbdbdb"></rect><path d="M336.85,269.18V406.45h83V269.18Zm75.44,86.61H344.38V320.05h67.91Zm0-44.25H344.38V275.81h67.91Z" style="fill:#ebebeb"></path><rect x="419.83" y="269.18" width="33.18" height="137.26" style="fill:#dbdbdb"></rect><rect x="344.38" y="275.81" width="16.14" height="35.73" style="fill:#dbdbdb"></rect><path d="M412.79,398.33H344.31V363.26h68.48Zm-67.48-1h66.48V364.26H345.31Z" style="fill:#dbdbdb"></path><rect x="369.02" y="373.34" width="13.4" height="6.78" style="fill:#dbdbdb"></rect><path d="M386.89,380.12H372.48v-6.76h14.41Zm-13.41-1h12.41v-4.76H373.48Z" style="fill:#dbdbdb"></path><rect x="344.38" y="320.06" width="16.14" height="35.73" style="fill:#dbdbdb"></rect><path d="M418.91,211.65c9.5,9.3,11.09,23.68,9.09,36.28-.05.29-.49.21-.49-.06,0-2.87.08-5.71.07-8.54l-.14-.38a19.12,19.12,0,0,1-6.17-6.63c-1.59-3.12-2.21-6.64-3.43-9.9-.11-.31.22-.22.44-.06,5.78,4.26,7.62,8.85,9.28,15a50.68,50.68,0,0,0-1-9.54c-1.25-5.81-3.72-11.58-7.89-15.89A.18.18,0,1,1,418.91,211.65Z" style="fill:#a6a6a6"></path><path d="M417.12,212.73c-1.63.06-2.65,2.67-3.93,3.43a1.22,1.22,0,0,1-1.8-.28c-1.26-1.76.47-3.94,2.1-5.15-1.17.48-2.13,1.32-3.39,1.56a1.19,1.19,0,0,1-1.53-.92c-.55-2.4,2.46-3.47,4.53-3.52-1-.7-3.88-2.59-2.35-3.52s4.91,1.77,6,2.66c1.62,1.31,3.55,3.27,3.62,5.32C420.47,214.71,418.38,213.23,417.12,212.73Z" style="fill:#dbdbdb"></path><path d="M417.6,213.13c-2.09-.95-6.11.42-6.45-.37-.69-1.61,2.52-2.71,4.25-2.93-1.6-.43-4.65-1.12-4.56-2.65.12-1.88,4.69-.27,7,1.51,2.92,2.23,2.9,4.39,2.42,4.82C419.6,214.1,417.94,213.29,417.6,213.13Z" style="fill:#ebebeb"></path><path d="M440.54,210.73c-9.84,8.93-12,23.24-10.46,35.91,0,.29.48.23.49,0,.11-2.87.13-5.71.25-8.54.06-.13.1-.25.16-.38a19,19,0,0,0,6.42-6.39c1.7-3.06,2.46-6.55,3.8-9.76.12-.31-.22-.23-.44-.07-5.93,4-7.95,8.55-9.84,14.61a50.62,50.62,0,0,1,1.37-9.5c1.47-5.76,4.15-11.43,8.49-15.58C440.94,210.83,440.71,210.57,440.54,210.73Z" style="fill:#a6a6a6"></path><path d="M442.28,211.88c1.63.12,2.56,2.76,3.8,3.57a1.21,1.21,0,0,0,1.81-.21c1.33-1.71-.31-4-1.9-5.23,1.15.53,2.08,1.4,3.33,1.69a1.18,1.18,0,0,0,1.56-.86c.64-2.38-2.32-3.56-4.39-3.69,1-.65,4-2.44,2.48-3.42s-5,1.58-6.11,2.43c-1.66,1.25-3.66,3.13-3.81,5.18C438.86,213.72,441,212.33,442.28,211.88Z" style="fill:#dbdbdb"></path><path d="M441.8,212.26c2.12-.87,6.08.65,6.45-.13.75-1.58-2.41-2.8-4.13-3.08,1.61-.37,4.69-.94,4.65-2.48,0-1.89-4.67-.45-7,1.24-3,2.12-3.06,4.28-2.6,4.73C439.76,213.15,441.44,212.41,441.8,212.26Z" style="fill:#ebebeb"></path><path d="M430.47,234.31a97.14,97.14,0,0,1-3.05,14.13.35.35,0,0,1-.69-.14c.64-4.36,1.82-8.63,2.47-13A65.27,65.27,0,0,0,430,222c-.42-7.33-2.41-15.13-7.19-20.87-.11-.14.11-.33.22-.2,9.58,11.17,8.06,24.86,8.05,26.09,1.36-4.62,2.75-9.92,7.88-14.63.22-.21.4-.11.36.24-.92,8.57-3.3,13.05-8.27,17.64C430.86,231.63,430.69,233,430.47,234.31Z" style="fill:#a6a6a6"></path><path d="M422.68,202.41c-1.72-.76-4.1,1.43-5.81,1.58a1.4,1.4,0,0,1-1.72-1.2c-.43-2.46,2.46-3.84,4.76-4.29-1.45-.08-2.87.3-4.29-.08a1.37,1.37,0,0,1-1.13-1.72c.64-2.77,4.3-2.36,6.47-1.38-.69-1.22-2.72-4.63-.67-4.83s4.21,4.31,4.9,5.79c1,2.17,2,5.18,1.08,7.34C425.16,206.15,423.73,203.57,422.68,202.41Z" style="fill:#dbdbdb"></path><path d="M423,203.07c-1.69-2-6.55-2.64-6.5-3.63.09-2,4-1.55,5.88-.9-1.44-1.25-4.26-3.5-3.39-5,1.06-1.89,5,2.09,6.5,5.09,1.9,3.79.8,6,.08,6.22C424.55,205.08,423.25,203.41,423,203.07Z" style="fill:#ebebeb"></path><path d="M436.78,236.9,441,269.18H415.29c.53-2.86,5.32-32.32,5.32-32.32Z" style="fill:#ebebeb"></path></g><g id="freepik--Shadow--inject-23"><path d="M448.31,439.23c0,11.28-88.78,20.42-198.31,20.42S51.69,450.51,51.69,439.23,140.47,418.81,250,418.81,448.31,428,448.31,439.23Z" style="fill:#ebebeb"></path></g><g id="freepik--Floor--inject-23"><polygon points="46.98 406.44 97.74 406.2 148.49 406.11 250 405.95 351.51 406.11 402.26 406.2 453.01 406.44 402.26 406.69 351.51 406.78 250 406.94 148.49 406.78 97.74 406.69 46.98 406.44" style="fill:#263238"></polygon></g><g id="freepik--Device--inject-23"><path d="M334.52,61.92H165.46a17.26,17.26,0,0,0-17.1,17.42v348a17.27,17.27,0,0,0,17.1,17.42H334.52a17.29,17.29,0,0,0,17.12-17.42v-348A17.28,17.28,0,0,0,334.52,61.92Zm6.42,354.67c0,9.16-6.86,16.57-15.32,16.57H174.38c-8.48,0-15.34-7.41-15.34-16.57V92.53C159,73.87,165.9,73,174.38,73h30.3c1.76,0,3.2,2,3.2,4.48v1.07c0,5.81,3.18,5.83,7.08,5.83H285c3.94,0,7.1,0,7.1-5.83V77.44c0-2.48,1.42-4.48,3.21-4.48h30.29c8.46,0,15.32,2.48,15.32,19.57Z" style="fill:#37474f"></path><path d="M340.94,92.53V416.59c0,9.16-6.86,16.57-15.32,16.57H174.38c-8.48,0-15.34-7.41-15.34-16.57V92.53C159,73.87,165.9,73,174.38,73h30.3c1.76,0,3.2,2,3.2,4.48v1.07c0,5.81,3.18,5.83,7.08,5.83H285c3.94,0,7.1,0,7.1-5.83V77.44c0-2.48,1.42-4.48,3.21-4.48h30.29C334.08,73,340.94,75.44,340.94,92.53Z" style="fill:#ebebeb"></path><path d="M340.94,92.53V228.75H159V92.53C159,73.87,165.9,73,174.38,73h30.3c1.76,0,3.2,2,3.2,4.48v1.07c0,5.81,3.18,5.83,7.08,5.83H285c3.94,0,7.1,0,7.1-5.83V77.44c0-2.48,1.42-4.48,3.21-4.48h30.29C334.08,73,340.94,75.44,340.94,92.53Z" style="fill:#0C3866"></path><g id="freepik--u5Zjqx--inject-23"><path d="M199.45,80.24l-.29.29c-.06,0-.11.11-.17.17a3.9,3.9,0,0,0-2.82-1.17,3.86,3.86,0,0,0-2.82,1.17l-.16-.17-.29-.29h0l0,0,.37-.32a4.06,4.06,0,0,1,.86-.55,4.18,4.18,0,0,1,1.13-.38c.19,0,.38,0,.57-.08h.5l.38,0a4.51,4.51,0,0,1,1,.25,4.58,4.58,0,0,1,.71.33,4.48,4.48,0,0,1,.67.47l.31.28Z" style="fill:#fff"></path><path d="M194.27,81.62c-.15-.16-.3-.31-.46-.46a3.32,3.32,0,0,1,4.71,0l-.46.46a2.68,2.68,0,0,0-3.79,0Z" style="fill:#fff"></path><path d="M197.6,82.08l-.46.46a1.31,1.31,0,0,0-1-.4,1.35,1.35,0,0,0-1,.4l-.46-.46A2,2,0,0,1,197.6,82.08Z" style="fill:#fff"></path><path d="M196.58,83a.41.41,0,0,1-.41.41.42.42,0,1,1,0-.83A.41.41,0,0,1,196.58,83Z" style="fill:#fff"></path></g><path d="M170.9,81.12a1.21,1.21,0,1,1,1.21,1.21A1.21,1.21,0,0,1,170.9,81.12Z" style="fill:#fff"></path><path d="M174.7,81.12a1.21,1.21,0,1,1,1.21,1.21A1.21,1.21,0,0,1,174.7,81.12Z" style="fill:#fff"></path><path d="M178.5,81.12a1.21,1.21,0,1,1,1.2,1.21A1.2,1.2,0,0,1,178.5,81.12Z" style="fill:#fff"></path><path d="M182.3,81.12a1.21,1.21,0,1,1,1.2,1.21A1.2,1.2,0,0,1,182.3,81.12Z" style="fill:#fff"></path><path d="M186.09,81.12a1.21,1.21,0,1,1,1.21,1.21A1.21,1.21,0,0,1,186.09,81.12Z" style="fill:#fff"></path><path d="M327.3,83.75h-9.82V79.21h9.82Zm-9.32-.5h8.82V79.71H318Z" style="fill:#fff"></path><rect x="318.3" y="79.98" width="6.33" height="3" style="fill:#fff"></rect><rect x="327.3" y="80.27" width="0.87" height="2.43" style="fill:#fff"></rect><polygon points="176.28 110.7 170.91 105.67 176.28 100.64 177.11 101.52 172.69 105.67 177.11 109.82 176.28 110.7" style="fill:#fff"></polygon><path d="M271,190.94a39.29,39.29,0,0,1-11.55,4.84A40.08,40.08,0,1,1,271,190.94Z" style="fill:#fff"></path><path d="M262.17,152.29A12.19,12.19,0,1,1,250,140.1,12.19,12.19,0,0,1,262.17,152.29Z" style="fill:#0C3866"></path><path d="M271,185.92v5a39.29,39.29,0,0,1-11.55,4.84,39.88,39.88,0,0,1-30.57-4.85v-5a21.06,21.06,0,1,1,42.12,0Z" style="fill:#0C3866"></path><rect x="178.52" y="214.87" width="142.96" height="138.8" style="fill:#fff"></rect><path d="M226.78,231.38l-3.67,8.74a.47.47,0,0,1-.08.14h0l-.08.09s0,0,0,0a.34.34,0,0,0-.11.07h0c-.05,0-.08.08-.14.09h0a0,0,0,0,0,0,0l-.12,0h-.36l-.1,0,0,0a.28.28,0,0,1-.14-.09h0l-.11-.07,0,0a.47.47,0,0,0-.06-.09s0,0,0,0a.45.45,0,0,1-.06-.14l-2-4.65-2,4.65a.45.45,0,0,1-.06.14,0,0,0,0,0,0,0l-.09.09s0,0,0,0a.18.18,0,0,0-.08.07h0a.74.74,0,0,1-.12.09h0a0,0,0,0,0,0,0,.21.21,0,0,0-.12,0h-.37a.26.26,0,0,0-.11,0l0,0a.34.34,0,0,1-.14-.09h0c-.05,0-.06-.06-.11-.07a.09.09,0,0,1,0,0l-.08-.09h0s0-.09-.07-.14l-3.69-8.74a.82.82,0,0,1,1.52-.63l2.93,6.94,1.94-4.6a.82.82,0,0,1,.78-.51.86.86,0,0,1,.78.51l1.93,4.6,2.93-6.94a.83.83,0,0,1,1.09-.44A.81.81,0,0,1,226.78,231.38Z" style="fill:#263238"></path><path d="M229.19,239.81V231a.81.81,0,0,1,.82-.83h4.9a.83.83,0,0,1,.83.83.85.85,0,0,1-.83.84h-4.06v2.74h3.49a.84.84,0,0,1,0,1.67h-3.49V239h4.06a.83.83,0,1,1,0,1.66H230A.81.81,0,0,1,229.19,239.81Z" style="fill:#263238"></path><path d="M238.08,239.81V231a.83.83,0,0,1,.82-.83.85.85,0,0,1,.85.83v8h4.06a.83.83,0,0,1,0,1.66H238.9A.82.82,0,0,1,238.08,239.81Z" style="fill:#263238"></path><path d="M245.46,235.23a5.5,5.5,0,0,1,5.5-5.4,5.67,5.67,0,0,1,3.47,1.17.89.89,0,0,1,.15,1.2.88.88,0,0,1-1.2.17,3.76,3.76,0,0,0-2.42-.83,4,4,0,0,0-2.7,1.08,3.72,3.72,0,0,0-1.09,2.61,3.66,3.66,0,0,0,1.09,2.61,4,4,0,0,0,2.7,1.08,3.79,3.79,0,0,0,2.42-.82.9.9,0,0,1,1.2.16.88.88,0,0,1-.15,1.2,5.61,5.61,0,0,1-3.47,1.17A5.48,5.48,0,0,1,245.46,235.23Z" style="fill:#263238"></path><path d="M265.47,231.44a5.52,5.52,0,0,1,0,7.59,5,5,0,0,1-3.59,1.6,5.06,5.06,0,0,1-3.67-1.6,5.58,5.58,0,0,1,0-7.59,5,5,0,0,1,3.67-1.61A4.88,4.88,0,0,1,265.47,231.44Zm-.2,3.79a3.85,3.85,0,0,0-1-2.62,3.23,3.23,0,0,0-4.8,0,3.8,3.8,0,0,0-1,2.62,3.74,3.74,0,0,0,1,2.61,3.21,3.21,0,0,0,4.8,0A3.79,3.79,0,0,0,265.27,235.23Z" style="fill:#263238"></path><path d="M278.37,231v8.85a.84.84,0,0,1-.84.82.82.82,0,0,1-.83-.82v-6.32l-2.16,3a.8.8,0,0,1-.67.35h0a.83.83,0,0,1-.69-.35l-2.15-3v6.32a.83.83,0,0,1-1.66,0V231a.83.83,0,0,1,.82-.83h0a.8.8,0,0,1,.66.35l3,4.14,3-4.14a.8.8,0,0,1,.67-.35h0A.86.86,0,0,1,278.37,231Z" style="fill:#263238"></path><path d="M281.25,239.81V231a.81.81,0,0,1,.82-.83H287a.83.83,0,0,1,.82.83.85.85,0,0,1-.82.84h-4.07v2.74h3.5a.84.84,0,0,1,0,1.67h-3.5V239H287a.83.83,0,0,1,0,1.66h-4.91A.82.82,0,0,1,281.25,239.81Z" style="fill:#263238"></path><path d="M195.24,265.24V261.7a.33.33,0,0,1,.33-.33h2a.34.34,0,0,1,0,.67h-1.62v1.1h1.39a.33.33,0,0,1,0,.66h-1.39v1.11h1.62a.33.33,0,0,1,0,.66h-2A.33.33,0,0,1,195.24,265.24Z" style="fill:#0C3866"></path><path d="M202.41,261.7v3.54a.34.34,0,0,1-.34.33.33.33,0,0,1-.33-.33v-2.52l-.86,1.2a.32.32,0,0,1-.27.13h0a.34.34,0,0,1-.28-.13l-.85-1.2v2.52a.34.34,0,0,1-.67,0V261.7a.33.33,0,0,1,.33-.33h0a.33.33,0,0,1,.26.14l1.19,1.66,1.2-1.66a.32.32,0,0,1,.27-.14h0A.35.35,0,0,1,202.41,261.7Z" style="fill:#0C3866"></path><path d="M205.61,264.58h-1.45l-.3.78a.34.34,0,0,1-.31.21.2.2,0,0,1-.11,0,.33.33,0,0,1-.2-.43l1.32-3.53a.34.34,0,0,1,.32-.21.32.32,0,0,1,.32.21l1.33,3.53a.34.34,0,0,1-.2.43.22.22,0,0,1-.12,0,.32.32,0,0,1-.3-.21Zm-.24-.66-.49-1.29-.48,1.29Z" style="fill:#0C3866"></path><path d="M207.39,261.7a.33.33,0,0,1,.33-.33.34.34,0,0,1,.34.33v3.54a.34.34,0,0,1-.34.33.33.33,0,0,1-.33-.33Z" style="fill:#0C3866"></path><path d="M209.18,265.24V261.7a.33.33,0,0,1,.33-.33.34.34,0,0,1,.34.33v3.21h1.62a.33.33,0,0,1,0,.66h-2A.33.33,0,0,1,209.18,265.24Z" style="fill:#0C3866"></path><path d="M195,276.91a1.42,1.42,0,1,1,2.84-.11h0a.15.15,0,0,1-.15.14h-2.41a1.15,1.15,0,0,0,1.14,1.12,1.11,1.11,0,0,0,1-.53.15.15,0,0,1,.19-.05.16.16,0,0,1,.05.21,1.4,1.4,0,0,1-1.19.66A1.44,1.44,0,0,1,195,276.91Zm.3-.24h2.23a1.13,1.13,0,0,0-2.23,0Z" style="fill:#263238"></path><path d="M203,276.63a.91.91,0,1,0-1.81,0v1.62h0v0a.12.12,0,0,1-.07.07.11.11,0,0,1-.07,0h0l0,0h0l0,0h0v0h0v0h0v-1.62a.91.91,0,1,0-1.81,0v1.6a.14.14,0,0,1-.06.12l0,0H199a.15.15,0,0,1-.12-.11v-2.68a.14.14,0,0,1,.14-.14.14.14,0,0,1,.14.14v.28a1.18,1.18,0,0,1,.91-.42,1.21,1.21,0,0,1,1,.62,1.21,1.21,0,0,1,1.05-.62,1.19,1.19,0,0,1,1.2,1.19v1.6a.14.14,0,0,1-.15.14.14.14,0,0,1-.14-.14Z" style="fill:#263238"></path><path d="M208.74,276.63a.91.91,0,1,0-1.82,0v1.62h0v0a.18.18,0,0,1-.08.07.08.08,0,0,1-.07,0h0l0,0h0l0,0h0v0h0v0h0v-1.62a.91.91,0,1,0-1.81,0v1.6a.15.15,0,0,1-.07.12l0,0h-.06a.13.13,0,0,1-.12-.11v-2.68a.13.13,0,0,1,.13-.14.14.14,0,0,1,.15.14v.28a1.16,1.16,0,0,1,.9-.42,1.18,1.18,0,0,1,1.05.62,1.22,1.22,0,0,1,1.06-.62,1.19,1.19,0,0,1,1.19,1.19v1.6a.14.14,0,0,1-.28,0Z" style="fill:#263238"></path><path d="M212.71,275.58v2.65a.15.15,0,0,1-.15.14.14.14,0,0,1-.14-.14v-.44a1.35,1.35,0,0,1-1.1.58,1.47,1.47,0,0,1,0-2.94,1.35,1.35,0,0,1,1.1.58v-.43a.14.14,0,0,1,.14-.15A.15.15,0,0,1,212.71,275.58Zm-.29,1.32a1.11,1.11,0,1,0-1.1,1.18A1.15,1.15,0,0,0,212.42,276.9Z" style="fill:#263238"></path><path d="M214.23,279.23a.22.22,0,0,0,.22-.22v-3.43a.15.15,0,0,1,.15-.15.15.15,0,0,1,.14.15V279a.51.51,0,0,1-.51.51.14.14,0,0,1-.14-.14A.14.14,0,0,1,214.23,279.23Zm.23-4.61a.16.16,0,0,1,.15-.15.15.15,0,0,1,.14.15v.14a.15.15,0,0,1-.14.15.17.17,0,0,1-.15-.15Z" style="fill:#263238"></path><path d="M218.51,275.58v2.65a.14.14,0,0,1-.28,0v-.44a1.39,1.39,0,0,1-1.11.58,1.47,1.47,0,0,1,0-2.94,1.39,1.39,0,0,1,1.11.58v-.43a.14.14,0,1,1,.28,0Zm-.28,1.32a1.11,1.11,0,1,0-1.11,1.18A1.15,1.15,0,0,0,218.23,276.9Z" style="fill:#263238"></path><path d="M224,276.63a.91.91,0,1,0-1.82,0v1.62h0v0a.12.12,0,0,1-.07.07.1.1,0,0,1-.07,0h0l0,0h0v0h0v0h0v0h0v-1.62a.91.91,0,1,0-1.81,0v1.6a.15.15,0,0,1-.07.12l0,0h-.06a.15.15,0,0,1-.12-.11v-2.68a.14.14,0,0,1,.14-.14.14.14,0,0,1,.15.14v.28a1.16,1.16,0,0,1,.9-.42,1.18,1.18,0,0,1,1.05.62,1.22,1.22,0,0,1,1.06-.62,1.19,1.19,0,0,1,1.19,1.19v1.6a.14.14,0,0,1-.28,0Z" style="fill:#263238"></path><path d="M225.26,276.91a1.42,1.42,0,1,1,2.84-.11h0a.14.14,0,0,1-.14.14h-2.41a1.15,1.15,0,0,0,1.14,1.12,1.08,1.08,0,0,0,.94-.53.16.16,0,0,1,.2-.05.16.16,0,0,1,0,.21,1.39,1.39,0,0,1-1.18.66A1.45,1.45,0,0,1,225.26,276.91Zm.31-.24h2.22a1.13,1.13,0,0,0-1.1-.95A1.15,1.15,0,0,0,225.57,276.67Z" style="fill:#263238"></path><path d="M228.92,277.76a.14.14,0,0,1,.2,0,1.6,1.6,0,0,0,.9.34.87.87,0,0,0,.56-.18.43.43,0,0,0,.22-.36.46.46,0,0,0-.21-.36A1.52,1.52,0,0,0,230,277h0a1.56,1.56,0,0,1-.67-.23.62.62,0,0,1-.32-.52.75.75,0,0,1,.32-.58,1.26,1.26,0,0,1,.72-.2,1.62,1.62,0,0,1,.88.32.17.17,0,0,1,0,.21.15.15,0,0,1-.2,0,1.26,1.26,0,0,0-.72-.3.91.91,0,0,0-.56.17.45.45,0,0,0-.18.34.35.35,0,0,0,.16.29,1.66,1.66,0,0,0,.6.21h0a2,2,0,0,1,.71.23.7.7,0,0,1,0,1.2,1.18,1.18,0,0,1-.73.23,1.75,1.75,0,0,1-1.08-.42A.13.13,0,0,1,228.92,277.76Z" style="fill:#263238"></path><path d="M234.25,277.51H232l-.09,0a.16.16,0,0,1,0-.21l2.43-3h0a.13.13,0,0,1,.2,0,.15.15,0,0,1,0,.07v2.92h.28a.15.15,0,1,1,0,.29h-.28v.72a.15.15,0,0,1-.3,0Zm0-.29v-2.46l-2,2.46Z" style="fill:#263238"></path><path d="M237.92,274.17a2.09,2.09,0,0,1,2.1,2.1,2.05,2.05,0,0,1-.22,1,1.06,1.06,0,0,1-.54.45h-.12a.42.42,0,0,1-.35-.16.5.5,0,0,1-.09-.29V277a1,1,0,0,1-.78.36,1.13,1.13,0,0,1,0-2.25,1.1,1.1,0,0,1,1.07,1.12v1h0a.38.38,0,0,0,0,.13.14.14,0,0,0,.11,0h0a.61.61,0,0,0,.35-.31,1.72,1.72,0,0,0,.2-.82,1.81,1.81,0,1,0-1.81,1.81,1.68,1.68,0,0,0,.45-.05c.08,0,.17,0,.17.1a.14.14,0,0,1-.1.18,2.18,2.18,0,0,1-.52.06,2.1,2.1,0,1,1,0-4.2Zm0,2.92a.8.8,0,0,0,.77-.82.77.77,0,1,0-1.53,0A.79.79,0,0,0,237.92,277.09Z" style="fill:#263238"></path><path d="M246.14,276.63a.91.91,0,1,0-1.81,0v1.62h0v0a.12.12,0,0,1-.07.07.11.11,0,0,1-.07,0h-.05l0,0h0l0,0h0v0h0v0h0v-1.62a.91.91,0,1,0-1.81,0v1.6a.14.14,0,0,1-.06.12l0,0h-.06a.15.15,0,0,1-.12-.11v-2.68a.14.14,0,0,1,.14-.14.14.14,0,0,1,.14.14v.28a1.18,1.18,0,0,1,.91-.42,1.2,1.2,0,0,0,2.1,0,1.19,1.19,0,0,1,1.19,1.19v1.6a.13.13,0,0,1-.14.14.14.14,0,0,1-.14-.14Z" style="fill:#263238"></path><path d="M250.11,275.58v2.65a.14.14,0,0,1-.14.14.15.15,0,0,1-.15-.14v-.44a1.35,1.35,0,0,1-1.1.58,1.47,1.47,0,0,1,0-2.94,1.35,1.35,0,0,1,1.1.58v-.43a.15.15,0,0,1,.15-.15A.15.15,0,0,1,250.11,275.58Zm-.29,1.32a1.1,1.1,0,1,0-1.1,1.18A1.15,1.15,0,0,0,249.82,276.9Z" style="fill:#263238"></path><path d="M251.37,274.62a.15.15,0,0,1,.14-.15.15.15,0,0,1,.15.15v.14a.15.15,0,0,1-.15.15.15.15,0,0,1-.14-.15Zm0,1a.14.14,0,0,1,.14-.15.15.15,0,0,1,.15.15v2.65a.15.15,0,0,1-.15.14.14.14,0,0,1-.14-.14Z" style="fill:#263238"></path><path d="M253,274.32a.15.15,0,0,1,.14-.15.15.15,0,0,1,.15.15v3.91a.14.14,0,0,1-.15.14.14.14,0,0,1-.14-.14Z" style="fill:#263238"></path><path d="M254.65,277.77a.3.3,0,1,1,0,.6.3.3,0,0,1,0-.6Z" style="fill:#263238"></path><path d="M255.46,276.9a1.51,1.51,0,0,1,2.45-1.14.14.14,0,0,1,0,.2.15.15,0,0,1-.2,0,1.2,1.2,0,1,0-.76,2.1,1.24,1.24,0,0,0,.76-.25.15.15,0,0,1,.2,0,.15.15,0,0,1,0,.21,1.55,1.55,0,0,1-.93.31A1.48,1.48,0,0,1,255.46,276.9Z" style="fill:#263238"></path><path d="M260.26,275.43a1.47,1.47,0,1,1-1.39,1.47A1.44,1.44,0,0,1,260.26,275.43Zm0,2.65a1.15,1.15,0,0,0,1.11-1.18,1.11,1.11,0,1,0-2.21,0A1.14,1.14,0,0,0,260.26,278.08Z" style="fill:#263238"></path><path d="M267,276.63a.92.92,0,0,0-.91-.91.9.9,0,0,0-.9.91v1.62h0v0a.12.12,0,0,1-.07.07.11.11,0,0,1-.07,0H265l0,0h0l0,0h0v0h0v0h0v-1.62a.91.91,0,1,0-1.81,0v1.6a.13.13,0,0,1-.07.12l0,0h-.06a.15.15,0,0,1-.12-.11v-2.68a.14.14,0,0,1,.14-.14.14.14,0,0,1,.14.14v.28a1.18,1.18,0,0,1,.91-.42,1.2,1.2,0,0,0,2.1,0,1.19,1.19,0,0,1,1.19,1.19v1.6a.14.14,0,0,1-.28,0Z" style="fill:#263238"></path><polygon points="194.62 281.74 208.46 281.56 222.31 281.45 250 281.37 277.69 281.45 291.54 281.56 305.38 281.74 291.54 281.93 277.69 282.03 250 282.12 222.31 282.03 208.46 281.92 194.62 281.74" style="fill:#dbdbdb"></polygon><path d="M196.65,297.69h-.74V299a.34.34,0,0,1-.67,0v-3.54a.33.33,0,0,1,.33-.33h1.08a1.28,1.28,0,1,1,0,2.56Zm-.74-.66h.74a.62.62,0,1,0,0-1.24h-.74Z" style="fill:#0C3866"></path><path d="M200.46,298.33H199l-.29.78a.32.32,0,0,1-.31.21h-.12a.34.34,0,0,1-.19-.43l1.32-3.54a.36.36,0,0,1,.32-.21.35.35,0,0,1,.32.21l1.32,3.54a.34.34,0,0,1-.2.43h-.11a.32.32,0,0,1-.31-.21Zm-.25-.65-.48-1.29-.49,1.29Z" style="fill:#0C3866"></path><path d="M202,298.28a.32.32,0,0,1,.44,0,1.89,1.89,0,0,0,1.14.46,1.31,1.31,0,0,0,.75-.22.54.54,0,0,0,.26-.43.38.38,0,0,0-.05-.19.51.51,0,0,0-.18-.18,2.41,2.41,0,0,0-.82-.29h0a3,3,0,0,1-.78-.23,1.35,1.35,0,0,1-.56-.47.9.9,0,0,1-.13-.49,1.11,1.11,0,0,1,.48-.88,1.77,1.77,0,0,1,1-.31,2.34,2.34,0,0,1,1.31.48.29.29,0,0,1,.08.42.29.29,0,0,1-.42.09,1.78,1.78,0,0,0-1-.38,1.13,1.13,0,0,0-.67.2.48.48,0,0,0-.23.38.31.31,0,0,0,.05.17.47.47,0,0,0,.16.15,1.94,1.94,0,0,0,.75.27h0a3.85,3.85,0,0,1,.83.25,1.47,1.47,0,0,1,.6.5,1,1,0,0,1,.14.51,1.18,1.18,0,0,1-.52.93,1.9,1.9,0,0,1-1.11.34,2.61,2.61,0,0,1-1.53-.6A.33.33,0,0,1,202,298.28Z" style="fill:#0C3866"></path><path d="M205.9,298.28a.32.32,0,0,1,.44,0,1.92,1.92,0,0,0,1.15.46,1.31,1.31,0,0,0,.75-.22.52.52,0,0,0,.25-.43.3.3,0,0,0-.05-.19.51.51,0,0,0-.18-.18,2.33,2.33,0,0,0-.82-.29h0a3.09,3.09,0,0,1-.78-.23,1.32,1.32,0,0,1-.55-.47.91.91,0,0,1-.14-.49,1.11,1.11,0,0,1,.48-.88,1.8,1.8,0,0,1,1-.31,2.31,2.31,0,0,1,1.3.48.31.31,0,0,1,.09.42.3.3,0,0,1-.43.09,1.78,1.78,0,0,0-1-.38,1.19,1.19,0,0,0-.68.2.47.47,0,0,0-.22.38.31.31,0,0,0,0,.17.47.47,0,0,0,.16.15,2.08,2.08,0,0,0,.75.27h0a3.69,3.69,0,0,1,.83.25,1.47,1.47,0,0,1,.6.5,1,1,0,0,1,.14.51,1.17,1.17,0,0,1-.51.93,2,2,0,0,1-1.11.34,2.61,2.61,0,0,1-1.54-.6A.33.33,0,0,1,205.9,298.28Z" style="fill:#0C3866"></path><path d="M215.42,295.62l-1.47,3.5,0,.05h0l0,0h0l0,0h0a.13.13,0,0,1-.06,0h-.25a.09.09,0,0,1-.06,0h0l-.05,0h0s0,0,0,0h0s0,0,0-.05l-.78-1.86-.79,1.86,0,.05h0l0,0h0l0,0h0l-.05,0h-.26a.1.1,0,0,1-.05,0h0l0,0h0l0,0h0s0,0,0-.05l-1.47-3.5a.32.32,0,0,1,.18-.42.33.33,0,0,1,.43.17l1.17,2.78.77-1.84a.35.35,0,0,1,.32-.21.36.36,0,0,1,.31.21l.77,1.84,1.17-2.78a.34.34,0,0,1,.44-.17A.32.32,0,0,1,215.42,295.62Z" style="fill:#0C3866"></path><path d="M219.6,295.65a2.19,2.19,0,0,1,0,3,2,2,0,0,1-1.43.64,2,2,0,0,1-1.47-.64,2.21,2.21,0,0,1,0-3,2,2,0,0,1,1.47-.64A1.91,1.91,0,0,1,219.6,295.65Zm-.08,1.52a1.53,1.53,0,0,0-.41-1.05,1.28,1.28,0,0,0-.94-.43,1.29,1.29,0,0,0-1,.43,1.54,1.54,0,0,0,0,2.09,1.29,1.29,0,0,0,1,.43,1.28,1.28,0,0,0,.94-.43A1.52,1.52,0,0,0,219.52,297.17Z" style="fill:#0C3866"></path><path d="M224.17,298.83a.34.34,0,0,1-.21.42h-.14a.5.5,0,0,1-.24-.06.77.77,0,0,1-.19-.21,1.7,1.7,0,0,1-.12-.72.5.5,0,0,0-.08-.26.43.43,0,0,0-.18-.17,1.22,1.22,0,0,0-.33-.15H222V299a.33.33,0,0,1-.34.32.32.32,0,0,1-.32-.32v-3.54a.32.32,0,0,1,.32-.33h1.08a1.28,1.28,0,0,1,.81,2.27.88.88,0,0,1,.21.22,1.14,1.14,0,0,1,.2.65,1.28,1.28,0,0,0,0,.35A.34.34,0,0,1,224.17,298.83Zm-.84-2.41a.63.63,0,0,0-.62-.63H222V297h.74A.62.62,0,0,0,223.33,296.42Z" style="fill:#0C3866"></path><path d="M225.14,299v-3.54a.32.32,0,0,1,.33-.33h.71a2.1,2.1,0,0,1,0,4.19h-.71A.32.32,0,0,1,225.14,299Zm.66-.34h.38a1.44,1.44,0,0,0,0-2.87h-.38Z" style="fill:#0C3866"></path><path d="M195.84,308.93l-.55.37s-.06,0-.1,0a.12.12,0,0,1,0-.24l.62-.3-.62-.29s-.09-.06-.09-.12a.13.13,0,0,1,.12-.12.17.17,0,0,1,.1,0l.55.38-.05-.66a.12.12,0,0,1,.12-.13.12.12,0,0,1,.12.13l-.05.66.54-.38.1,0a.12.12,0,0,1,.12.12.12.12,0,0,1-.08.12l-.62.29.62.3a.1.1,0,0,1,.08.11.12.12,0,0,1-.12.13.26.26,0,0,1-.1,0l-.54-.37.05.65a.12.12,0,0,1-.12.13.12.12,0,0,1-.12-.13Z" style="fill:#263238"></path><path d="M198.42,308.93l-.55.37s-.06,0-.1,0a.12.12,0,0,1,0-.24l.62-.3-.62-.29c-.05,0-.09-.06-.09-.12a.13.13,0,0,1,.12-.12.17.17,0,0,1,.1,0l.55.38,0-.66a.12.12,0,0,1,.12-.13.12.12,0,0,1,.12.13l-.05.66.54-.38a.19.19,0,0,1,.1,0,.12.12,0,0,1,.12.12.12.12,0,0,1-.08.12l-.62.29.62.3a.1.1,0,0,1,.08.11.12.12,0,0,1-.12.13s-.06,0-.1,0l-.54-.37.05.65a.12.12,0,0,1-.12.13.12.12,0,0,1-.12-.13Z" style="fill:#263238"></path><path d="M201,308.93l-.55.37s-.06,0-.1,0a.12.12,0,0,1,0-.24l.62-.3-.62-.29s-.09-.06-.09-.12a.13.13,0,0,1,.12-.12.17.17,0,0,1,.1,0l.55.38L201,308a.12.12,0,0,1,.12-.13.12.12,0,0,1,.12.13l-.05.66.55-.38a.16.16,0,0,1,.09,0,.12.12,0,0,1,.12.12.12.12,0,0,1-.08.12l-.62.29.62.3a.1.1,0,0,1,.08.11.12.12,0,0,1-.12.13.18.18,0,0,1-.09,0l-.55-.37.05.65a.12.12,0,0,1-.12.13.12.12,0,0,1-.12-.13Z" style="fill:#263238"></path><path d="M203.58,308.93l-.55.37s-.06,0-.1,0a.12.12,0,0,1,0-.24l.62-.3-.62-.29c-.05,0-.09-.06-.09-.12a.13.13,0,0,1,.12-.12.17.17,0,0,1,.1,0l.55.38-.05-.66a.12.12,0,0,1,.12-.13.12.12,0,0,1,.12.13l-.05.66.54-.38a.19.19,0,0,1,.1,0,.12.12,0,0,1,.12.12.12.12,0,0,1-.08.12l-.62.29.62.3a.1.1,0,0,1,.08.11.12.12,0,0,1-.12.13s-.06,0-.1,0l-.54-.37.05.65a.12.12,0,0,1-.12.13.12.12,0,0,1-.12-.13Z" style="fill:#263238"></path><path d="M206.16,308.93l-.55.37s-.06,0-.1,0a.12.12,0,0,1,0-.24l.62-.3-.62-.29s-.09-.06-.09-.12a.13.13,0,0,1,.12-.12.17.17,0,0,1,.1,0l.55.38,0-.66a.12.12,0,0,1,.12-.13.12.12,0,0,1,.12.13l0,.66.54-.38a.19.19,0,0,1,.1,0,.12.12,0,0,1,.12.12.12.12,0,0,1-.08.12l-.62.29.62.3a.1.1,0,0,1,.08.11.12.12,0,0,1-.12.13s-.06,0-.1,0l-.54-.37,0,.65a.12.12,0,0,1-.12.13.12.12,0,0,1-.12-.13Z" style="fill:#263238"></path><path d="M208.74,308.93l-.55.37s-.06,0-.1,0a.12.12,0,0,1,0-.24l.62-.3-.62-.29c-.05,0-.09-.06-.09-.12a.13.13,0,0,1,.12-.12.17.17,0,0,1,.1,0l.55.38-.05-.66a.12.12,0,0,1,.12-.13.12.12,0,0,1,.12.13l-.05.66.54-.38a.19.19,0,0,1,.1,0,.12.12,0,0,1,.12.12.12.12,0,0,1-.08.12l-.62.29.62.3a.1.1,0,0,1,.08.11.12.12,0,0,1-.12.13s-.06,0-.1,0l-.54-.37.05.65a.12.12,0,0,1-.12.13.12.12,0,0,1-.12-.13Z" style="fill:#263238"></path><path d="M211.31,308.93l-.54.37s-.06,0-.1,0a.12.12,0,0,1,0-.24l.61-.3-.61-.29s-.09-.06-.09-.12a.13.13,0,0,1,.12-.12.17.17,0,0,1,.1,0l.54.38,0-.66a.11.11,0,0,1,.12-.13.12.12,0,0,1,.12.13l0,.66.54-.38a.19.19,0,0,1,.1,0,.12.12,0,0,1,.12.12.12.12,0,0,1-.08.12l-.62.29.62.3a.1.1,0,0,1,.08.11.12.12,0,0,1-.12.13s-.06,0-.1,0l-.54-.37,0,.65a.12.12,0,0,1-.12.13.11.11,0,0,1-.12-.13Z" style="fill:#263238"></path><path d="M213.9,308.93l-.55.37s-.06,0-.1,0a.12.12,0,0,1,0-.24l.62-.3-.62-.29c-.05,0-.09-.06-.09-.12a.13.13,0,0,1,.12-.12.17.17,0,0,1,.1,0l.55.38-.05-.66a.12.12,0,0,1,.12-.13.12.12,0,0,1,.12.13l-.05.66.54-.38a.19.19,0,0,1,.1,0,.12.12,0,0,1,.12.12.12.12,0,0,1-.08.12l-.62.29.62.3a.1.1,0,0,1,.08.11.12.12,0,0,1-.12.13s-.06,0-.1,0l-.54-.37.05.65a.12.12,0,0,1-.12.13.12.12,0,0,1-.12-.13Z" style="fill:#263238"></path><path d="M216.48,308.93l-.55.37s-.06,0-.1,0a.12.12,0,0,1,0-.24l.61-.3-.61-.29c-.05,0-.09-.06-.09-.12a.13.13,0,0,1,.12-.12.17.17,0,0,1,.1,0l.55.38,0-.66a.12.12,0,0,1,.12-.13.12.12,0,0,1,.12.13l0,.66.54-.38a.19.19,0,0,1,.1,0,.12.12,0,0,1,.12.12.12.12,0,0,1-.08.12l-.62.29.62.3a.1.1,0,0,1,.08.11.12.12,0,0,1-.12.13s-.06,0-.1,0l-.54-.37,0,.65a.12.12,0,0,1-.12.13.12.12,0,0,1-.12-.13Z" style="fill:#263238"></path><path d="M219.06,308.93l-.55.37s-.06,0-.1,0a.12.12,0,0,1,0-.24l.62-.3-.62-.29s-.09-.06-.09-.12a.13.13,0,0,1,.12-.12.17.17,0,0,1,.1,0l.55.38L219,308a.12.12,0,0,1,.12-.13.12.12,0,0,1,.12.13l-.05.66.54-.38a.19.19,0,0,1,.1,0,.12.12,0,0,1,.12.12.12.12,0,0,1-.08.12l-.62.29.62.3a.1.1,0,0,1,.08.11.12.12,0,0,1-.12.13s-.06,0-.1,0l-.54-.37.05.65a.12.12,0,0,1-.12.13.12.12,0,0,1-.12-.13Z" style="fill:#263238"></path><path d="M221.64,308.93l-.55.37s-.06,0-.1,0a.12.12,0,0,1,0-.24l.62-.3-.62-.29c-.05,0-.09-.06-.09-.12a.13.13,0,0,1,.12-.12.17.17,0,0,1,.1,0l.55.38,0-.66a.12.12,0,0,1,.12-.13.12.12,0,0,1,.12.13l-.05.66.55-.38a.14.14,0,0,1,.09,0,.12.12,0,0,1,.12.12.12.12,0,0,1-.08.12l-.62.29.62.3a.1.1,0,0,1,.08.11.12.12,0,0,1-.12.13.15.15,0,0,1-.09,0l-.55-.37.05.65a.12.12,0,0,1-.12.13.12.12,0,0,1-.12-.13Z" style="fill:#263238"></path><polygon points="194.62 315.5 208.46 315.31 222.31 315.21 250 315.12 277.69 315.21 291.54 315.31 305.38 315.5 291.54 315.68 277.69 315.78 250 315.87 222.31 315.78 208.46 315.68 194.62 315.5" style="fill:#dbdbdb"></polygon><rect x="223.16" y="304.52" width="0.5" height="8.98" style="fill:#263238"></rect><rect x="209.27" y="340.87" width="81.46" height="25.61" style="fill:#0C3866"></rect><path d="M236.25,357v-5.31a.5.5,0,0,1,1,0v4.81h2.44a.51.51,0,0,1,.5.5.51.51,0,0,1-.5.5h-2.94A.5.5,0,0,1,236.25,357Z" style="fill:#fff"></path><path d="M245.93,352a3.3,3.3,0,0,1,.91,2.28,3.26,3.26,0,0,1-.91,2.27,2.93,2.93,0,0,1-2.15,1,3,3,0,0,1-2.21-1,3.24,3.24,0,0,1-.89-2.27,3.28,3.28,0,0,1,.89-2.28,3,3,0,0,1,2.21-1A2.92,2.92,0,0,1,245.93,352Zm-.12,2.28a2.35,2.35,0,0,0-.61-1.58,2,2,0,0,0-1.42-.64,2,2,0,0,0-1.46.64,2.3,2.3,0,0,0-.61,1.58,2.22,2.22,0,0,0,.61,1.56,2,2,0,0,0,1.46.65,1.93,1.93,0,0,0,1.42-.65A2.26,2.26,0,0,0,245.81,354.28Z" style="fill:#fff"></path><path d="M248.33,354.29a3.28,3.28,0,0,1,3.32-3.25,3.35,3.35,0,0,1,2.06.7.51.51,0,0,1,.09.73.52.52,0,0,1-.72.08,2.35,2.35,0,0,0-1.43-.49,2.26,2.26,0,0,0-1.62.66,2.16,2.16,0,0,0-.67,1.57,2.13,2.13,0,0,0,.67,1.54,2.22,2.22,0,0,0,1.62.66,2.48,2.48,0,0,0,1.24-.34v-1.23H251.6a.52.52,0,0,1-.51-.52.5.5,0,0,1,.51-.5h1.79a.51.51,0,0,1,.52.5v2c0,.07,0,.1,0,.16l0,0h0a.49.49,0,0,1-.17.22,3.34,3.34,0,0,1-2,.7A3.27,3.27,0,0,1,248.33,354.29Z" style="fill:#fff"></path><path d="M256,351.71a.48.48,0,0,1,.49-.49.5.5,0,0,1,.51.49V357a.51.51,0,0,1-.51.5.49.49,0,0,1-.49-.5Z" style="fill:#fff"></path><path d="M259.67,357a.49.49,0,1,1-1,0v-5.23h0a.47.47,0,0,1,.2-.41.49.49,0,0,1,.68.11l2.91,4v-3.71a.49.49,0,0,1,1,0V357a.5.5,0,0,1-.49.5.47.47,0,0,1-.37-.18l-.05-.06-2.88-4Z" style="fill:#fff"></path><path d="M224.14,375.91a.14.14,0,0,1,.14-.14h2.17a.14.14,0,0,1,.14.14.15.15,0,0,1-.14.15h-2v1.66h1.76a.15.15,0,0,1,0,.3h-1.76v1.8a.15.15,0,0,1-.15.15.15.15,0,0,1-.14-.15Z" style="fill:#263238"></path><path d="M228.52,377a1.47,1.47,0,1,1-1.39,1.47A1.44,1.44,0,0,1,228.52,377Zm0,2.65a1.19,1.19,0,1,0-1.11-1.18A1.15,1.15,0,0,0,228.52,379.68Z" style="fill:#263238"></path><path d="M230.89,377.18A.15.15,0,0,1,231,377a.14.14,0,0,1,.14.15v.65l0-.08a1.46,1.46,0,0,1,1.18-.72.14.14,0,0,1,.14.15.14.14,0,0,1-.14.14,1.07,1.07,0,0,0-.85.48,2.85,2.85,0,0,0-.36.68.13.13,0,0,0,0,0v1.29a.14.14,0,0,1-.14.15.15.15,0,0,1-.15-.15Z" style="fill:#263238"></path><path d="M236.09,379.73a1.38,1.38,0,0,1-1.38,1.38,1.4,1.4,0,0,1-.61-.14.15.15,0,0,1-.06-.19.13.13,0,0,1,.19-.07,1,1,0,0,0,.48.11,1.09,1.09,0,0,0,1.1-1.09v-.36a1.33,1.33,0,0,1-1.1.58,1.46,1.46,0,0,1,0-2.92,1.35,1.35,0,0,1,1.1.57v-.43A.14.14,0,0,1,236,377a.13.13,0,0,1,.13.14Zm-.28-1.25a1.1,1.1,0,1,0-2.19,0,1.1,1.1,0,1,0,2.19,0Z" style="fill:#263238"></path><path d="M238.74,377a1.47,1.47,0,1,1-1.39,1.47A1.44,1.44,0,0,1,238.74,377Zm0,2.65a1.19,1.19,0,1,0-1.1-1.18A1.15,1.15,0,0,0,238.74,379.68Z" style="fill:#263238"></path><path d="M242.15,377.17a.16.16,0,0,1-.15.15h-.37v2.14a.22.22,0,0,0,.21.21.15.15,0,0,1,0,.3.5.5,0,0,1-.51-.51v-2.14H241c-.14,0-.14-.08-.14-.15s0-.14.14-.14h.37v-1.09a.15.15,0,0,1,.14-.15.16.16,0,0,1,.16.15V377H242A.15.15,0,0,1,242.15,377.17Z" style="fill:#263238"></path><path d="M245.32,378.54v-1.37a.15.15,0,0,1,.3,0v.43a1.36,1.36,0,0,1,1.11-.57,1.43,1.43,0,0,1,1.42,1.45,1.45,1.45,0,0,1-1.42,1.47,1.37,1.37,0,0,1-1.11-.58v1.68a.15.15,0,0,1-.3,0Zm.3-.06a1.12,1.12,0,1,0,2.24,0,1.12,1.12,0,1,0-2.24,0Z" style="fill:#263238"></path><path d="M251.75,377.17v2.65a.15.15,0,1,1-.29,0v-.44a1.36,1.36,0,0,1-1.1.59,1.47,1.47,0,0,1,0-2.94,1.35,1.35,0,0,1,1.1.57v-.43a.14.14,0,0,1,.14-.14A.15.15,0,0,1,251.75,377.17Zm-.29,1.33a1.11,1.11,0,1,0-1.1,1.18A1.15,1.15,0,0,0,251.46,378.5Z" style="fill:#263238"></path><path d="M252.79,379.35a.14.14,0,0,1,.21,0,1.54,1.54,0,0,0,.9.34.86.86,0,0,0,.55-.18.45.45,0,0,0,.23-.36.46.46,0,0,0-.21-.36,1.47,1.47,0,0,0-.63-.22h0a1.65,1.65,0,0,1-.66-.23.61.61,0,0,1-.32-.53.74.74,0,0,1,.32-.58,1.3,1.3,0,0,1,.71-.19,1.62,1.62,0,0,1,.88.31.16.16,0,0,1,0,.21.14.14,0,0,1-.2,0,1.29,1.29,0,0,0-.72-.29.86.86,0,0,0-.55.16.46.46,0,0,0-.19.34.34.34,0,0,0,.17.29,1.43,1.43,0,0,0,.6.21h0a1.86,1.86,0,0,1,.71.24.7.7,0,0,1,.33.6.74.74,0,0,1-.33.59,1.23,1.23,0,0,1-.73.24,1.82,1.82,0,0,1-1.09-.42A.15.15,0,0,1,252.79,379.35Z" style="fill:#263238"></path><path d="M255.69,379.35a.13.13,0,0,1,.2,0,1.57,1.57,0,0,0,.9.34.89.89,0,0,0,.56-.18.41.41,0,0,0,0-.72,1.47,1.47,0,0,0-.63-.22h0a1.65,1.65,0,0,1-.66-.23.61.61,0,0,1-.32-.53.74.74,0,0,1,.32-.58,1.34,1.34,0,0,1,.72-.19,1.62,1.62,0,0,1,.87.31.15.15,0,0,1,0,.21.13.13,0,0,1-.19,0,1.35,1.35,0,0,0-.72-.29.89.89,0,0,0-.56.16.46.46,0,0,0-.19.34.36.36,0,0,0,.17.29,1.43,1.43,0,0,0,.6.21h0a2,2,0,0,1,.72.24.72.72,0,0,1,.33.6.75.75,0,0,1-.34.59,1.18,1.18,0,0,1-.73.24,1.82,1.82,0,0,1-1.09-.42A.14.14,0,0,1,255.69,379.35Z" style="fill:#263238"></path><path d="M259.73,379.94s0,0-.06-.06l-1.1-2.63a.16.16,0,0,1,.07-.19.15.15,0,0,1,.19.08l1,2.32.67-1.62a.16.16,0,0,1,.29,0l.67,1.62,1-2.32a.14.14,0,0,1,.18-.08.15.15,0,0,1,.08.19l-1.1,2.61a.22.22,0,0,1-.05.08l-.07,0h0a.16.16,0,0,1-.12-.09h0l-.69-1.63-.68,1.62v0a.15.15,0,0,1-.13.09l-.05,0Z" style="fill:#263238"></path><path d="M265,377a1.47,1.47,0,1,1-1.39,1.47A1.44,1.44,0,0,1,265,377Zm0,2.65a1.19,1.19,0,1,0-1.1-1.18A1.15,1.15,0,0,0,265,379.68Z" style="fill:#263238"></path><path d="M267.4,377.18a.14.14,0,0,1,.15-.15.14.14,0,0,1,.13.15v.65l.05-.08a1.43,1.43,0,0,1,1.17-.72.15.15,0,0,1,.15.15.15.15,0,0,1-.15.14,1.07,1.07,0,0,0-.85.48,2.42,2.42,0,0,0-.35.68s0,0,0,0v1.29a.14.14,0,0,1-.13.15.14.14,0,0,1-.15-.15Z" style="fill:#263238"></path><path d="M272.23,379.4a1.42,1.42,0,0,1-1.13.57,1.47,1.47,0,0,1,0-2.94,1.39,1.39,0,0,1,1.13.57v-1.69a.15.15,0,0,1,.3,0v3.91a.15.15,0,0,1-.3,0Zm0-.85v-.1a1.17,1.17,0,1,0,0,.1Z" style="fill:#263238"></path><path d="M274.52,378.24h0a.14.14,0,0,1,.14-.14,1,1,0,1,0,0-2,1,1,0,0,0-.87.51.16.16,0,0,1-.2.05.13.13,0,0,1,0-.19,1.27,1.27,0,0,1,1.11-.65,1.29,1.29,0,0,1,.15,2.58V379a.15.15,0,0,1-.15.14.14.14,0,0,1-.14-.14Zm0,1.46a.15.15,0,1,1,.29,0v.13a.15.15,0,0,1-.15.14.14.14,0,0,1-.14-.14Z" style="fill:#263238"></path><path d="M259.55,77.08H240.44a1.18,1.18,0,0,1-1.18-1.18h0a1.18,1.18,0,0,1,1.18-1.18h19.11a1.18,1.18,0,0,1,1.18,1.18h0A1.18,1.18,0,0,1,259.55,77.08Z" style="fill:#fff"></path></g><g id="freepik--Plant--inject-23"><path d="M121.6,343.45c-1.16,4.93-2.39,9.78-2.63,14.84.14.25.11,1.17,0,.92,0,.82-1.27.67-1.27-.14,0-.52,0-1.05,0-1.55-2.9-3.61-7.11-5.89-10.51-9a19.76,19.76,0,0,1-5.76-9.17c-2.82-9.73-.18-20-3.57-29.75-2.93-8.36-8.18-15.64-12.62-23.22-4.69-8-8.15-16.44-8.5-25.83-.27-7.19.58-16.77,6.06-22.15,5.8-5.72,13-1.44,17.45,3.66,12.88,14.79,18.84,33.48,21.25,52.59,1.33,10.58,2.71,21.22,2.39,31.89A86,86,0,0,1,121.6,343.45Z" style="fill:#0C3866"></path><path d="M119,362.18a182.85,182.85,0,0,0-.35-30,.93.93,0,0,0,0-.1c.16-8.1.8-16.17.48-24.28a143.87,143.87,0,0,0-3.56-26c0-.1-.18-.07-.16,0a170.1,170.1,0,0,1,2.82,25.46q.24,6.87-.11,13.73c-.08,1.49-.22,3-.32,4.49v0a160.16,160.16,0,0,0-24.1-63.77c-.16-.26-.63,0-.47.29a166.42,166.42,0,0,1,19.62,47.28c-6.2-11.48-15.56-20.92-22.5-31.95,0-.06-.14,0-.11.06,6.24,12.29,16.55,22,23.12,34.07,1.13,4.93,2.07,9.91,2.76,14.92a167.31,167.31,0,0,1,1.5,20.72c-3.78-7.05-7.7-13.8-10.78-21.26a.16.16,0,0,0-.3.13c2.62,7.75,6.15,16.1,11.1,22.71q0,7.36-.41,14.72c-.77,13.08-3,26-4,39a.3.3,0,0,0,.6.07A298.62,298.62,0,0,0,119,362.18Z" style="fill:#263238"></path><path d="M105.14,261.29c0-.09-.18,0-.15.07,2.39,6.61,3.74,13.3,5.47,20.07a.25.25,0,0,0,.49-.08C110.25,274.48,107.8,267.63,105.14,261.29Z" style="fill:#263238"></path><path d="M165.81,289a101.34,101.34,0,0,1-5.49,11.29c-4.31,7.81-8.79,15-9.61,24.07-.36,4.06-.49,8.14-1.73,12a35.77,35.77,0,0,1-4.8,9.44c-4.66,6.79-10.49,12.65-14.81,19.7a82.73,82.73,0,0,0-9.85,23.73c-.1.46-.82.33-.72-.12a.45.45,0,0,0,0-.11.11.11,0,0,1,0-.09c-.69-19.51.87-39.17,6.82-57.86A200.25,200.25,0,0,1,135.06,307c3.19-6.77,7.16-13.29,12.76-18.35,3.63-3.27,11.5-9.47,16.67-6.19C167,284.06,166.79,286.55,165.81,289Z" style="fill:#0C3866"></path><path d="M146.21,333.21a161.87,161.87,0,0,1-11.34,16.3c-1.89,2.46-3.8,4.91-5.69,7.38-.89,1.16-1.89,2.32-2.71,3.58.52-2.05,1-4.11,1.54-6.16,2.52-9.85,4.94-19.8,8.69-29.27,3.66-9.27,8.54-18,13.54-26.56.14-.22-.23-.39-.36-.17-4.12,6.78-8.31,13.55-11.77,20.7a107.82,107.82,0,0,0-5,12.28,190.63,190.63,0,0,1,6.65-26.24c0-.08-.08-.13-.11-.05a89.54,89.54,0,0,0-6.91,27.29l0,0q-1.27,3.8-2.35,7.67c-3.07,10.91-5.77,21.94-8.27,33a118,118,0,0,1,1.88-21.7c0-.16-.22-.2-.26,0a68.84,68.84,0,0,0-1.88,22.87q-1.42,6.32-2.77,12.63c-1.91,9-4.27,18.15-5.39,27.28a.18.18,0,0,0,.36.06c1.34-4.92,2.15-10,3.24-15s2.23-10,3.39-15q2.55-10.89,5.28-21.73c1.21-2.65,3.54-5,5.29-7.22,1.92-2.44,3.84-4.88,5.71-7.36a109.48,109.48,0,0,0,9.39-14.53C146.44,333.18,146.27,333.11,146.21,333.21Z" style="fill:#263238"></path><path d="M147,324.87A101.76,101.76,0,0,0,136,342.49c0,.08.08.17.13.09,3.73-5.85,7.4-11.75,11.13-17.6C147.27,324.88,147.11,324.78,147,324.87Z" style="fill:#263238"></path><path d="M64,307.48c2.53,4.36,5.41,9.58,4.33,14.81-.69,3.31-3.11,6-3.55,9.37-1,7.45,6.44,12.38,11.82,15.9,13.39,8.79,31.76,16.62,34.2,34.57.09.64,1.19.48,1.11-.15a.26.26,0,0,0,0-.11s.07-.06.07-.11a68.93,68.93,0,0,0-.25-27.41c-2-9.25-6-17.56-10.8-25.69-8.06-13.75-16.6-27.84-28.79-38.37-3.37-2.91-10.28-8.16-13-1.58C56.53,295.11,60.9,302.17,64,307.48Z" style="fill:#0C3866"></path><path d="M76.26,336.64c8.88,9.61,23,15,30.64,25.77-4.53-16.5-12-31.35-23.55-44.24a.35.35,0,0,1,.49-.49,87.16,87.16,0,0,1,19.25,27.88,124.56,124.56,0,0,0-8.29-21.2.23.23,0,0,1,.39-.23A80.73,80.73,0,0,1,104.12,348c10.08,24.38,11,53,8.9,78.68,0,.37-.59.38-.58,0,.58-20.25.25-40.86-4.6-60.64-.1-.42-.22-.82-.32-1.23-8.32-11.6-22.38-17-31.42-28C76,336.69,76.16,336.53,76.26,336.64Z" style="fill:#263238"></path><path d="M74.2,328.38c4.66,4.28,9.25,8.65,13.92,12.93,0,0,0,.12-.07.09a68.51,68.51,0,0,1-14.13-12.74A.2.2,0,0,1,74.2,328.38Z" style="fill:#263238"></path><path d="M73.46,309.85a147.49,147.49,0,0,0,14,19.19.08.08,0,1,1-.12.11A67.63,67.63,0,0,1,73.21,310,.15.15,0,0,1,73.46,309.85Z" style="fill:#263238"></path><polygon points="94.45 444.77 135.29 444.77 129.78 389.83 100.74 389.83 94.45 444.77" style="fill:#455a64"></polygon><polygon points="99.72 398.76 130.68 398.76 129.79 389.83 100.74 389.83 99.72 398.76" style="fill:#263238"></polygon><rect x="95.73" y="383.74" width="38.28" height="8.77" transform="translate(229.74 776.26) rotate(180)" style="fill:#455a64"></rect></g></svg>